<svg xmlns="http://www.w3.org/2000/svg" width="420" height="280" viewBox="0 0 420 280" fill="none">
  <rect width="420" height="280" rx="18" fill="#f7f7fa" />
  <path d="M52 196c16-44 62-86 150-92 66-4 146 4 190 34 38 26 42 70 2 90-14 8-34 12-56 12H112c-72 0-114-22-60-44z" fill="#e5e7ee" />
  <rect x="72" y="122" width="276" height="112" rx="26" fill="#112033" stroke="#dfe2ea" stroke-width="3" />
  <path d="M94 208c16-54 70-82 146-84 60-2 118 22 138 84H94z" fill="#15263b" />
  <path d="M142 190c12-34 46-50 98-52 58-2 106 14 122 52H142z" fill="#1c2f45" />
  <rect x="136" y="150" width="70" height="22" rx="10" fill="#e0e5ee" />
  <rect x="222" y="150" width="70" height="22" rx="10" fill="#e0e5ee" />
  <rect x="300" y="154" width="38" height="18" rx="8" fill="#2d3f57" />
  <circle cx="134" cy="214" r="26" fill="#0f1015" />
  <circle cx="134" cy="214" r="16" fill="#eef1f6" />
  <circle cx="302" cy="214" r="26" fill="#0f1015" />
  <circle cx="302" cy="214" r="16" fill="#eef1f6" />
  <text x="96" y="68" font-family="'Inter', sans-serif" font-size="20" font-weight="700" fill="#1c1c1e">Audi Q5 2021</text>
  <text x="96" y="92" font-family="'Inter', sans-serif" font-size="14" fill="#7a7a80">Оформление под ключ, как в макете карточек</text>
</svg>
