<svg xmlns="http://www.w3.org/2000/svg" width="420" height="280" viewBox="0 0 420 280" fill="none">
  <rect width="420" height="280" rx="18" fill="#f7f9fb" />
  <path d="M44 194c24-46 72-82 156-92 70-8 154 2 196 34 34 26 36 66 0 86-18 10-42 14-70 14H108c-74 0-122-22-64-42z" fill="#e3e7ee" />
  <rect x="70" y="120" width="280" height="112" rx="26" fill="#0f131c" stroke="#dfe2ea" stroke-width="3" />
  <path d="M94 206c16-54 72-82 150-84 60-2 122 22 142 84H94z" fill="#131927" />
  <path d="M140 188c12-32 46-48 98-50 58-2 108 12 126 50H140z" fill="#161d2c" />
  <rect x="136" y="150" width="70" height="22" rx="10" fill="#eef1f6" />
  <rect x="222" y="150" width="70" height="22" rx="10" fill="#eef1f6" />
  <rect x="298" y="154" width="40" height="18" rx="9" fill="#222a39" />
  <circle cx="134" cy="214" r="26" fill="#0f1015" />
  <circle cx="134" cy="214" r="16" fill="#eef1f6" />
  <circle cx="302" cy="214" r="26" fill="#0f1015" />
  <circle cx="302" cy="214" r="16" fill="#eef1f6" />
  <text x="96" y="68" font-family="'Inter', sans-serif" font-size="20" font-weight="700" fill="#1c1c1e">Honda CR-V 2021</text>
  <text x="96" y="92" font-family="'Inter', sans-serif" font-size="14" fill="#7a7a80">Тот самый кроссовер из макета, теперь с картинкой</text>
</svg>
