<svg xmlns="http://www.w3.org/2000/svg" viewBox="0 0 64 64" fill="none" stroke="#1f2937" stroke-width="2.5" stroke-linecap="round" stroke-linejoin="round">
  <rect x="8" y="26" width="48" height="16" rx="4" ry="4" fill="#e5f0ff" stroke="#2563eb" />
  <path d="M14 42h-4c-2 0-4-2-4-4v-2c0-2 2-4 4-4h4" fill="#dbeafe" stroke="#2563eb" />
  <path d="M50 42h4c2 0 4-2 4-4v-2c0-2-2-4-4-4h-4" fill="#dbeafe" stroke="#2563eb" />
  <path d="M20 26l4-6h16l4 6" stroke="#1f2937" />
  <circle cx="20" cy="44" r="4" fill="#ffffff" stroke="#1f2937" />
  <circle cx="44" cy="44" r="4" fill="#ffffff" stroke="#1f2937" />
  <path d="M22 30h20" />
  <path d="M10 36h6m32 0h6" />
</svg>
